<svg width="43" height="58" viewBox="0 0 43 58" fill="none" xmlns="http://www.w3.org/2000/svg">
<rect width="43" height="58" fill="#818384"/>
<path d="M20.3252 31.4375H23.2002L24.6455 33.2969L26.0674 34.9531L28.7471 38.3125H25.5908L23.7471 36.0469L22.8018 34.7031L20.3252 31.4375ZM28.9893 29C28.9893 30.7448 28.6585 32.2292 27.9971 33.4531C27.3408 34.6771 26.445 35.612 25.3096 36.2578C24.1794 36.8984 22.9085 37.2187 21.4971 37.2187C20.0752 37.2187 18.7992 36.8958 17.6689 36.25C16.5387 35.6042 15.6455 34.6693 14.9893 33.4453C14.333 32.2214 14.0049 30.7396 14.0049 29C14.0049 27.2552 14.333 25.7708 14.9893 24.5469C15.6455 23.3229 16.5387 22.3906 17.6689 21.75C18.7992 21.1042 20.0752 20.7812 21.4971 20.7812C22.9085 20.7812 24.1794 21.1042 25.3096 21.75C26.445 22.3906 27.3408 23.3229 27.9971 24.5469C28.6585 25.7708 28.9893 27.2552 28.9893 29ZM25.5596 29C25.5596 27.8698 25.3903 26.9167 25.0518 26.1406C24.7184 25.3646 24.2471 24.776 23.6377 24.375C23.0283 23.974 22.3148 23.7734 21.4971 23.7734C20.6794 23.7734 19.9658 23.974 19.3564 24.375C18.7471 24.776 18.2731 25.3646 17.9346 26.1406C17.6012 26.9167 17.4346 27.8698 17.4346 29C17.4346 30.1302 17.6012 31.0833 17.9346 31.8594C18.2731 32.6354 18.7471 33.224 19.3564 33.625C19.9658 34.026 20.6794 34.2266 21.4971 34.2266C22.3148 34.2266 23.0283 34.026 23.6377 33.625C24.2471 33.224 24.7184 32.6354 25.0518 31.8594C25.3903 31.0833 25.5596 30.1302 25.5596 29Z" fill="white"/>
</svg>
